<svg xmlns="http://www.w3.org/2000/svg" style="display: none;">
    <symbol id="icon-account-group" viewBox="0 0 512 512">
        <path d="m256 301l0-41c7-7 19-24 21-60 10-5 16-16 16-30 0-12-4-22-12-28 7-13 18-37 12-60-7-28-48-39-81-39-29 0-65 8-77 30-12-1-20 2-26 9-15 16-8 46-4 62 1 2 2 4 2 5l0 42c0 41 24 63 42 71l0 39c-8 3-17 7-26 10-56 20-104 37-112 64-11 31-11 102-11 105 0 6 5 11 11 11l384 0c6 0 10-5 10-11 0-3 0-74-10-105-11-31-69-48-139-74z m-235 168c1-20 3-66 10-88 5-16 57-35 99-50 12-4 23-8 34-12 4-2 7-6 7-10l0-54c0-4-3-9-8-10-1 0-35-12-35-54l0-42c0-3-1-5-2-11-2-8-9-34-2-41 3-4 11-3 15-2 6 1 11-2 13-8 3-13 29-22 60-22 31 0 57 9 60 22 5 17-6 37-11 48-3 6-5 10-5 14 0 5 5 10 11 10 3 0 5 6 5 11 0 4-2 11-5 11-6 0-11 4-11 10 0 43-16 55-16 55-3 2-5 6-5 9l0 54c0 4 2 8 7 10 51 19 125 41 132 62 8 22 9 68 10 88l-363 0z m480-94c-8-25-49-51-138-84l0-20c7-7 19-25 21-61 4-2 7-5 10-9 4-5 6-13 6-20 0-13-5-23-13-28 7-15 19-41 13-64-4-15-21-31-40-39-19-7-38-6-54 5-5 3-6 10-3 15 3 4 10 6 15 3 12-9 25-6 34-3 15 6 25 18 27 24 4 17-6 40-12 52-3 6-4 10-4 13 0 3 1 6 3 8 2 2 4 3 7 3 4 0 6 6 6 11 0 3-1 6-3 8-1 2-2 2-3 2-6 0-10 5-10 11 0 43-17 55-17 55-3 2-5 5-5 9l0 32c0 4 3 8 7 10 83 31 127 56 133 73 7 22 9 68 10 88l-43 0c-6 0-11 5-11 11 0 6 5 11 11 11l53 0c6 0 11-5 11-11 0-3 0-74-11-105z"/>
    </symbol>

    <symbol id="icon-arrow-down" viewBox="0 0 512 512">
        <path d="m508 109c-4-4-11-3-15 1l-237 269-237-269c-4-4-11-5-15-1-5 4-5 11-1 15l245 278c2 2 5 3 8 3 3 0 6-1 8-3l245-278c4-4 4-11-1-15z"/>
    </symbol>

    <symbol id="icon-arrow-left" viewBox="0 0 512 512">
        <path d="m133 256l269-237c4-4 5-11 1-15-4-5-11-5-15-1l-278 245c-2 2-3 5-3 8 0 3 1 6 3 8l278 245c2 2 4 3 7 3 3 0 6-1 8-4 4-4 3-11-1-15z"/>
    </symbol>

    <symbol id="icon-arrow-right" viewBox="0 0 512 512">
        <path d="m402 248l-278-245c-4-4-11-4-15 1-4 4-3 11 1 15l269 237-269 237c-4 4-5 11-1 15 2 3 5 4 8 4 3 0 5-1 7-3l278-245c2-2 3-5 3-8 0-3-1-6-3-8z"/>
    </symbol>

    <symbol id="icon-delete" viewBox="0 0 60 60">
        <path d="M18.3,56h23.6c2.7,0,4.8-2.2,4.8-4.8V18.7h2.1c0.6,0,1-0.4,1-1v-2.3c0-2.1-1.7-3.7-3.7-3.7h-8.5V9.1c0-1.7-1.4-3.1-3.1-3.1
            h-8.9c-1.7,0-3.1,1.4-3.1,3.1v2.6H14c-2.1,0-3.7,1.7-3.7,3.7v2.3c0,0.6,0.4,1,1,1h2.1v32.5C13.4,53.8,15.6,56,18.3,56z M44.7,51.2
            c0,1.6-1.3,2.8-2.8,2.8H18.3c-1.6,0-2.8-1.3-2.8-2.8V18.7h29.3V51.2z M24.5,9.1C24.5,8.5,25,8,25.6,8h8.9c0.6,0,1.1,0.5,1.1,1.1v2.6
            h-11V9.1z M12.3,15.4c0-1,0.8-1.7,1.7-1.7h32c1,0,1.7,0.8,1.7,1.7v1.3H12.3V15.4z"/>
        <path d="M37.9 49.2c.6 0 1-.4 1-1V24.4c0-.6-.4-1-1-1s-1 .4-1 1v23.8C36.9 48.8 37.4 49.2 37.9 49.2zM30.1 49.2c.6 0 1-.4 1-1V24.4c0-.6-.4-1-1-1s-1 .4-1 1v23.8C29.1 48.8 29.5 49.2 30.1 49.2zM22.2 49.2c.6 0 1-.4 1-1V24.4c0-.6-.4-1-1-1s-1 .4-1 1v23.8C21.2 48.8 21.6 49.2 22.2 49.2z"/>
    </symbol>

    <symbol id="icon-edit" viewBox="0 0 24 24">
        <path d="M7.29289322,18 L18.7928932,6.5 L16.5,4.20710678 L5,15.7071068 L5,18 L7.29289322,18 Z M4,18.5 L4,15.5 C4,15.3673918 4.05267842,15.2402148 4.14644661,15.1464466 L16.1464466,3.14644661 C16.3417088,2.95118446 16.6582912,2.95118446 16.8535534,3.14644661 L19.8535534,6.14644661 C20.0488155,6.34170876 20.0488155,6.65829124 19.8535534,6.85355339 L7.85355339,18.8535534 C7.7597852,18.9473216 7.63260824,19 7.5,19 L4.5,19 C4.22385763,19 4,18.7761424 4,18.5 Z M4.5,21 C4.22385763,21 4,20.7761424 4,20.5 C4,20.2238576 4.22385763,20 4.5,20 L14.5069431,20 C14.7830855,20 15.0069431,20.2238576 15.0069431,20.5 C15.0069431,20.7761424 14.7830855,21 14.5069431,21 L4.5,21 Z"/>
    </symbol>

    <symbol id="icon-sign-out" viewBox="0 0 24 24">
        <path d="M4.70710678,12 L7.85355339,15.1464466 C8.04881554,15.3417088 8.04881554,15.6582912 7.85355339,15.8535534 C7.65829124,16.0488155 7.34170876,16.0488155 7.14644661,15.8535534 L3.14644661,11.8535534 C2.95118446,11.6582912 2.95118446,11.3417088 3.14644661,11.1464466 L7.14644661,7.14644661 C7.34170876,6.95118446 7.65829124,6.95118446 7.85355339,7.14644661 C8.04881554,7.34170876 8.04881554,7.65829124 7.85355339,7.85355339 L4.70710678,11 L15.5,11 C15.7761424,11 16,11.2238576 16,11.5 C16,11.7761424 15.7761424,12 15.5,12 L4.70710678,12 Z M10.5,4 C10.2238576,4 10,3.77614237 10,3.5 C10,3.22385763 10.2238576,3 10.5,3 L18.5,3 C19.8807119,3 21,4.11928813 21,5.5 L21,18.5 C21,19.8807119 19.8807119,21 18.5,21 L10.5,21 C10.2238576,21 10,20.7761424 10,20.5 C10,20.2238576 10.2238576,20 10.5,20 L18.5,20 C19.3284271,20 20,19.3284271 20,18.5 L20,5.5 C20,4.67157288 19.3284271,4 18.5,4 L10.5,4 Z"/>
    </symbol>

    <symbol id="icon-home" viewBox="0 0 24 24">
        <path d="M20,10.7359622 L20,18.5 C20,19.8807119 18.8807119,21 17.5,21 L14.5,21 C14.2238576,21 14,20.7761424 14,20.5 L14,14.5 C14,14.2238576 13.7761424,14 13.5,14 L10.5,14 C10.2238576,14 10,14.2238576 10,14.5 L10,20.5 C10,20.7761424 9.77614237,21 9.5,21 L6.5,21 C5.11928813,21 4,19.8807119 4,18.5 L4,10.7359622 L3.81785363,10.8859651 C3.60469098,11.0615108 3.28958059,11.0310163 3.11403488,10.8178536 C2.93848917,10.604691 2.96898373,10.2895806 3.18214637,10.1140349 L11.6821464,3.11403488 C11.8667743,2.96198837 12.1332257,2.96198837 12.3178536,3.11403488 L20.8178536,10.1140349 C21.0310163,10.2895806 21.0615108,10.604691 20.8859651,10.8178536 C20.7104194,11.0310163 20.395309,11.0615108 20.1821464,10.8859651 L20,10.7359622 Z M19.0066996,9.91795013 L12,4.14772693 L4.9933004,9.91795013 C4.99770753,9.94464611 5,9.97205534 5,10 L5,18.5 C5,19.3284271 5.67157288,20 6.5,20 L9,20 L9,14.5 C9,13.6715729 9.67157288,13 10.5,13 L13.5,13 C14.3284271,13 15,13.6715729 15,14.5 L15,20 L17.5,20 C18.3284271,20 19,19.3284271 19,18.5 L19,10 C19,9.97205534 19.0022925,9.94464611 19.0066996,9.91795013 L19.0066996,9.91795013 Z"/>
    </symbol>

    <symbol id="icon-reservations" viewBox="0 0 24 24">
        <path d="M15.5,12 L17,12 L17,3.5 C17,2.67157288 16.3284271,2 15.5,2 L6.5,2 C5.67157288,2 5,2.67157288 5,3.5 L5,12 L6.5,12 L6.5,11.6323808 C6.5,10.7542236 6.96074708,9.94045656 7.71376061,9.48864844 L8.68372662,8.90666884 C8.2565549,8.38832622 8,7.72412391 8,7 C8,5.34314575 9.34314575,4 11,4 C12.6568542,4 14,5.34314575 14,7 C14,7.72412391 13.7434451,8.38832622 13.3162734,8.90666884 L14.2862394,9.48864844 C15.0392529,9.94045656 15.5,10.7542236 15.5,11.6323808 L15.5,12 L15.5,12 Z M14.5,12 L14.5,11.6323808 C14.5,11.1054865 14.2235517,10.6172262 13.7717436,10.3461414 L12.5131641,9.59099367 C12.0689421,9.85098383 11.5518734,10 11,10 C10.4481266,10 9.93105788,9.85098383 9.48683587,9.59099367 L8.22825637,10.3461414 C7.77644825,10.6172262 7.5,11.1054865 7.5,11.6323808 L7.5,12 L14.5,12 L14.5,12 Z M17,13 L5,13 L5,18.5 C5,19.3284271 5.67157288,20 6.5,20 L15.5,20 C16.3284271,20 17,19.3284271 17,18.5 L17,13 L17,13 Z M17.958119,3.04188098 C19.1200402,3.25706275 20,4.27576856 20,5.5 L20,20.5 C20,21.8807119 18.8807119,23 17.5,23 L8.5,23 C7.27576856,23 6.25706275,22.1200402 6.04188098,20.958119 C4.8799598,20.7429373 4,19.7242314 4,18.5 L4,3.5 C4,2.11928813 5.11928813,1 6.5,1 L15.5,1 C16.7242314,1 17.7429373,1.8799598 17.958119,3.04188098 L17.958119,3.04188098 Z M7.08535285,21 C7.29127106,21.5825962 7.84689059,22 8.5,22 L17.5,22 C18.3284271,22 19,21.3284271 19,20.5 L19,5.5 C19,4.84689059 18.5825962,4.29127106 18,4.08535285 L18,18.5 C18,19.8807119 16.8807119,21 15.5,21 L7.08535285,21 L7.08535285,21 Z M11,9 C12.1045695,9 13,8.1045695 13,7 C13,5.8954305 12.1045695,5 11,5 C9.8954305,5 9,5.8954305 9,7 C9,8.1045695 9.8954305,9 11,9 Z M7.5,16 C7.22385763,16 7,15.7761424 7,15.5 C7,15.2238576 7.22385763,15 7.5,15 L14.5,15 C14.7761424,15 15,15.2238576 15,15.5 C15,15.7761424 14.7761424,16 14.5,16 L7.5,16 Z M7.5,18 C7.22385763,18 7,17.7761424 7,17.5 C7,17.2238576 7.22385763,17 7.5,17 L12.5,17 C12.7761424,17 13,17.2238576 13,17.5 C13,17.7761424 12.7761424,18 12.5,18 L7.5,18 Z"/>
    </symbol>

    <symbol id="icon-download" viewBox="0 0 24 24">
        <path d="M14.7928932,11.5 L11.6464466,8.35355339 C11.4511845,8.15829124 11.4511845,7.84170876 11.6464466,7.64644661 C11.8417088,7.45118446 12.1582912,7.45118446 12.3535534,7.64644661 L16.3535534,11.6464466 C16.5488155,11.8417088 16.5488155,12.1582912 16.3535534,12.3535534 L12.3535534,16.3535534 C12.1582912,16.5488155 11.8417088,16.5488155 11.6464466,16.3535534 C11.4511845,16.1582912 11.4511845,15.8417088 11.6464466,15.6464466 L14.7928932,12.5 L4,12.5 C3.72385763,12.5 3.5,12.2761424 3.5,12 C3.5,11.7238576 3.72385763,11.5 4,11.5 L14.7928932,11.5 Z M16,4.5 C15.7238576,4.5 15.5,4.27614237 15.5,4 C15.5,3.72385763 15.7238576,3.5 16,3.5 L19,3.5 C20.3807119,3.5 21.5,4.61928813 21.5,6 L21.5,18 C21.5,19.3807119 20.3807119,20.5 19,20.5 L16,20.5 C15.7238576,20.5 15.5,20.2761424 15.5,20 C15.5,19.7238576 15.7238576,19.5 16,19.5 L19,19.5 C19.8284271,19.5 20.5,18.8284271 20.5,18 L20.5,6 C20.5,5.17157288 19.8284271,4.5 19,4.5 L16,4.5 Z" transform="rotate(90 12.5 12)"/>
    </symbol>

    <symbol id="icon-users" viewBox="0 0 24 24">
        <path d="M7.86872332,11.2987983 L3.81348725,13.3862352 C3.31395818,13.6433683 3,14.15809 3,14.7199144 L3,15.5 C3,16.3284353 3.67158104,17 4.50007042,17 C4.77621279,17 5.00007042,17.2238576 5.00007042,17.5 C5.00007042,17.7761424 4.77621279,18 4.50007042,18 C3.11930174,18 2,16.8807255 2,15.5 L2,14.7199144 C2,13.7835403 2.52326364,12.9256709 3.35581209,12.4971157 L6.71355663,10.7687133 C5.64186533,9.83428889 5,8.47230593 5,7 C5,4.23857625 7.23857625,2 10,2 C11.6765944,2 13.2132159,2.83194719 14.1379524,4.1925488 C14.2931758,4.42093513 14.2338655,4.73191224 14.0054791,4.88713561 C13.7770928,5.04235899 13.4661157,4.9830487 13.3108923,4.75466237 C12.5703998,3.66514623 11.3418627,3 10,3 C7.790861,3 6,4.790861 6,7 C6,8.41171278 6.73680464,9.69567406 7.92026949,10.4175913 C8.15601291,10.5613955 8.23054436,10.8690796 8.08674015,11.104823 C8.0329088,11.1930707 7.95611316,11.2587279 7.86872332,11.2987983 L7.86872332,11.2987983 Z M11.9612658,15.5668358 L7.87929558,17.4222768 C7.34380416,17.665682 7,18.1996113 7,18.7878265 L7,19.5 C7,20.3284271 7.67157288,21 8.5,21 L19.5,21 C20.3284271,21 21,20.3284271 21,19.5 L21,18.7878265 C21,18.1996113 20.6561958,17.665682 20.1207044,17.4222768 L16.0387342,15.5668358 C15.4161054,15.8452135 14.7261289,16 14,16 C13.2738711,16 12.5838946,15.8452135 11.9612658,15.5668358 L11.9612658,15.5668358 Z M10.9221582,14.9406987 C9.75209123,14.0255364 9,12.6005984 9,11 C9,8.23857625 11.2385763,6 14,6 C16.7614237,6 19,8.23857625 19,11 C19,12.6005984 18.2479088,14.0255364 17.0778418,14.9406987 L20.5345074,16.5119103 C21.4269931,16.9175857 22,17.8074678 22,18.7878265 L22,19.5 C22,20.8807119 20.8807119,22 19.5,22 L8.5,22 C7.11928813,22 6,20.8807119 6,19.5 L6,18.7878265 C6,17.8074678 6.57300693,16.9175857 7.46549264,16.5119103 L10.9221582,14.9406987 L10.9221582,14.9406987 Z M14,15 C16.209139,15 18,13.209139 18,11 C18,8.790861 16.209139,7 14,7 C11.790861,7 10,8.790861 10,11 C10,13.209139 11.790861,15 14,15 Z"/>
    </symbol>
</svg>