<svg xmlns="http://www.w3.org/2000/svg" style="display: none;">

    <symbol id="icon-account-group" viewBox="0 0 512 512">
        <path d="m256 301l0-41c7-7 19-24 21-60 10-5 16-16 16-30 0-12-4-22-12-28 7-13 18-37 12-60-7-28-48-39-81-39-29 0-65 8-77 30-12-1-20 2-26 9-15 16-8 46-4 62 1 2 2 4 2 5l0 42c0 41 24 63 42 71l0 39c-8 3-17 7-26 10-56 20-104 37-112 64-11 31-11 102-11 105 0 6 5 11 11 11l384 0c6 0 10-5 10-11 0-3 0-74-10-105-11-31-69-48-139-74z m-235 168c1-20 3-66 10-88 5-16 57-35 99-50 12-4 23-8 34-12 4-2 7-6 7-10l0-54c0-4-3-9-8-10-1 0-35-12-35-54l0-42c0-3-1-5-2-11-2-8-9-34-2-41 3-4 11-3 15-2 6 1 11-2 13-8 3-13 29-22 60-22 31 0 57 9 60 22 5 17-6 37-11 48-3 6-5 10-5 14 0 5 5 10 11 10 3 0 5 6 5 11 0 4-2 11-5 11-6 0-11 4-11 10 0 43-16 55-16 55-3 2-5 6-5 9l0 54c0 4 2 8 7 10 51 19 125 41 132 62 8 22 9 68 10 88l-363 0z m480-94c-8-25-49-51-138-84l0-20c7-7 19-25 21-61 4-2 7-5 10-9 4-5 6-13 6-20 0-13-5-23-13-28 7-15 19-41 13-64-4-15-21-31-40-39-19-7-38-6-54 5-5 3-6 10-3 15 3 4 10 6 15 3 12-9 25-6 34-3 15 6 25 18 27 24 4 17-6 40-12 52-3 6-4 10-4 13 0 3 1 6 3 8 2 2 4 3 7 3 4 0 6 6 6 11 0 3-1 6-3 8-1 2-2 2-3 2-6 0-10 5-10 11 0 43-17 55-17 55-3 2-5 5-5 9l0 32c0 4 3 8 7 10 83 31 127 56 133 73 7 22 9 68 10 88l-43 0c-6 0-11 5-11 11 0 6 5 11 11 11l53 0c6 0 11-5 11-11 0-3 0-74-11-105z"/>
    </symbol>

    <symbol id="icon-arrow-down" viewBox="0 0 512 512">
        <path d="m508 109c-4-4-11-3-15 1l-237 269-237-269c-4-4-11-5-15-1-5 4-5 11-1 15l245 278c2 2 5 3 8 3 3 0 6-1 8-3l245-278c4-4 4-11-1-15z"/>
    </symbol>

    <symbol id="icon-arrow-left" viewBox="0 0 512 512">
        <path d="m133 256l269-237c4-4 5-11 1-15-4-5-11-5-15-1l-278 245c-2 2-3 5-3 8 0 3 1 6 3 8l278 245c2 2 4 3 7 3 3 0 6-1 8-4 4-4 3-11-1-15z"/>
    </symbol>

    <symbol id="icon-arrow-right" viewBox="0 0 512 512">
        <path d="m402 248l-278-245c-4-4-11-4-15 1-4 4-3 11 1 15l269 237-269 237c-4 4-5 11-1 15 2 3 5 4 8 4 3 0 5-1 7-3l278-245c2-2 3-5 3-8 0-3-1-6-3-8z"/>
    </symbol>

    <symbol id="icon-delete" viewBox="0 0 60 60">
        <path d="M18.3,56h23.6c2.7,0,4.8-2.2,4.8-4.8V18.7h2.1c0.6,0,1-0.4,1-1v-2.3c0-2.1-1.7-3.7-3.7-3.7h-8.5V9.1c0-1.7-1.4-3.1-3.1-3.1
            h-8.9c-1.7,0-3.1,1.4-3.1,3.1v2.6H14c-2.1,0-3.7,1.7-3.7,3.7v2.3c0,0.6,0.4,1,1,1h2.1v32.5C13.4,53.8,15.6,56,18.3,56z M44.7,51.2
            c0,1.6-1.3,2.8-2.8,2.8H18.3c-1.6,0-2.8-1.3-2.8-2.8V18.7h29.3V51.2z M24.5,9.1C24.5,8.5,25,8,25.6,8h8.9c0.6,0,1.1,0.5,1.1,1.1v2.6
            h-11V9.1z M12.3,15.4c0-1,0.8-1.7,1.7-1.7h32c1,0,1.7,0.8,1.7,1.7v1.3H12.3V15.4z"/>
        <path d="M37.9 49.2c.6 0 1-.4 1-1V24.4c0-.6-.4-1-1-1s-1 .4-1 1v23.8C36.9 48.8 37.4 49.2 37.9 49.2zM30.1 49.2c.6 0 1-.4 1-1V24.4c0-.6-.4-1-1-1s-1 .4-1 1v23.8C29.1 48.8 29.5 49.2 30.1 49.2zM22.2 49.2c.6 0 1-.4 1-1V24.4c0-.6-.4-1-1-1s-1 .4-1 1v23.8C21.2 48.8 21.6 49.2 22.2 49.2z"/>
    </symbol>

</svg>